<?xml version="1.0" encoding="UTF-8"?>
<!-- Generated by Pixelmator Pro 2.4.5 -->
<svg width="22" height="22" viewBox="0 0 22 22" xmlns="http://www.w3.org/2000/svg" xmlns:xlink="http://www.w3.org/1999/xlink">
    <path id="path1" fill="#ffffff" stroke="none" d="M 6.574333 2.52725 L 9.546166 5.5 L 12.452916 5.5 L 15.425667 2.528168 C 15.783847 2.169987 16.364569 2.169987 16.72275 2.528168 C 17.080929 2.886347 17.080929 3.46707 16.72275 3.825249 L 15.046167 5.5 L 16.958332 5.5 C 18.730247 5.5 20.166668 6.93642 20.166668 8.708334 L 20.166668 16.041668 C 20.166668 17.81358 18.730247 19.25 16.958332 19.25 L 5.041667 19.25 C 3.269753 19.25 1.833333 17.81358 1.833333 16.041668 L 1.833333 8.708334 C 1.833333 6.93642 3.269753 5.5 5.041667 5.5 L 6.952917 5.5 L 5.27725 3.823416 C 4.91907 3.465237 4.91907 2.884512 5.27725 2.526333 C 5.63543 2.168154 6.216154 2.168152 6.574333 2.526333 Z M 16.958332 7.333334 L 5.041667 7.333334 C 4.33343 7.333367 3.741074 7.871368 3.673083 8.576333 L 3.666667 8.708334 L 3.666667 16.041668 C 3.666701 16.749905 4.204701 17.34226 4.909667 17.41025 L 5.041667 17.416668 L 16.958332 17.416668 C 17.666569 17.416634 18.258926 16.878632 18.326918 16.173666 L 18.333332 16.041668 L 18.333332 8.708334 C 18.333332 7.948942 17.717724 7.333334 16.958332 7.333334 Z M 7.333334 10.083334 C 7.839595 10.083334 8.25 10.493739 8.25 11 L 8.25 12.833333 C 8.249923 13.33954 7.83954 13.74986 7.333334 13.74986 C 6.827127 13.74986 6.416745 13.33954 6.416667 12.833333 L 6.416667 11 C 6.416667 10.493739 6.827073 10.083334 7.333334 10.083334 Z M 14.666668 10.083334 C 15.172929 10.083334 15.583332 10.493739 15.583332 11 L 15.583332 12.833333 C 15.583255 13.33954 15.172873 13.74986 14.666668 13.74986 C 14.16046 13.74986 13.750077 13.33954 13.75 12.833333 L 13.75 11 C 13.75 10.493739 14.160405 10.083334 14.666668 10.083334 Z"/>
</svg>
