<?xml version="1.0" encoding="UTF-8"?>
<!-- Generated by Pixelmator Pro 2.4.5 -->
<svg viewBox="0 0 26 24" fill="none" xmlns="http://www.w3.org/2000/svg">
    <path id="path1" fill="#ffffff" stroke="none" d="M 18.131641 3.863086 C 18.751368 4.534766 19.037109 5.336328 18.996288 6.301171 L 18.996288 13.81211 C 18.981445 14.791798 18.654882 15.59707 18.01289 16.227928 C 17.374609 16.858788 16.561914 17.189062 15.582227 17.21875 L 3.414804 17.21875 C 2.433262 17.189062 1.625762 16.85508 0.992305 16.209373 C 0.359293 15.563671 0.028452 14.713867 -0 13.663672 L -0 6.301171 C 0.028452 5.336328 0.359293 4.534766 0.992305 3.863086 C 1.625762 3.256348 2.433262 2.923105 3.414804 2.894531 L 4.505078 2.894531 L 3.564356 1.936739 C 3.350977 1.724102 3.244102 1.454317 3.244102 1.128124 C 3.244102 0.801563 3.350977 0.532148 3.564356 0.319252 C 3.777735 0.10643 4.048633 0 4.375196 0 C 4.701758 0 4.972656 0.10643 5.187891 0.319252 L 7.908008 2.894531 L 11.173633 2.894531 L 13.938281 0.319252 C 14.164649 0.10643 14.442969 0 14.769531 0 C 15.096093 0 15.366992 0.10643 15.582227 0.319252 C 15.79375 0.532148 15.901367 0.801563 15.901367 1.128124 C 15.901367 1.454317 15.79375 1.724102 15.582227 1.936739 L 14.643359 2.894531 L 15.730664 2.894531 C 16.710352 2.923105 17.511913 3.256348 18.131641 3.863086 L 18.131641 3.863086 Z M 16.691797 6.449609 C 16.676952 6.09336 16.554493 5.803906 16.294727 5.577538 C 16.101757 5.351172 15.775195 5.228711 15.452344 5.213867 L 3.564356 5.213867 C 3.208477 5.228711 2.916797 5.351172 2.689317 5.577538 C 2.461465 5.803906 2.340488 6.09336 2.326387 6.449609 L 2.326387 13.663672 C 2.326387 14.005077 2.447363 14.294532 2.689317 14.535743 C 2.931269 14.776954 3.222949 14.899414 3.564356 14.899414 L 15.452344 14.899414 C 15.79375 14.899414 16.083202 14.776954 16.316992 14.535743 C 16.550781 14.294532 16.676952 14.005077 16.691797 13.663672 L 16.691797 6.449609 Z M 6.883789 8.03418 C 7.117578 8.267968 7.24375 8.557422 7.258594 8.895118 L 7.258594 10.130859 C 7.24375 10.472266 7.121289 10.758008 6.894922 10.991797 C 6.664844 11.225586 6.375391 11.344337 6.019141 11.344337 C 5.662891 11.344337 5.369727 11.225586 5.14336 10.991797 C 4.916992 10.758008 4.794531 10.472266 4.779687 10.130859 L 4.779687 8.895118 C 4.794531 8.557422 4.920703 8.267968 5.154492 8.03418 C 5.388281 7.800391 5.644336 7.67793 6.019141 7.663086 C 6.360547 7.67793 6.65 7.800391 6.883789 8.03418 L 6.883789 8.03418 Z M 13.990234 8.03418 C 14.224023 8.267968 14.350196 8.557422 14.365039 8.895118 L 14.365039 10.130859 C 14.350196 10.472266 14.227735 10.758008 14.001367 10.991797 C 13.775001 11.225586 13.481835 11.344337 13.125587 11.344337 C 12.769336 11.344337 12.479882 11.225586 12.249804 10.991797 C 11.990039 10.758008 11.900977 10.472266 11.889844 10.130859 L 11.889844 8.895118 C 11.900977 8.557422 12.027148 8.267968 12.260938 8.03418 C 12.494727 7.800391 12.78418 7.67793 13.125587 7.663086 C 13.466992 7.67793 13.756446 7.800391 13.990234 8.03418 L 13.990234 8.03418 Z"/>
</svg>
