<?xml version="1.0" encoding="UTF-8"?>
<!-- Generated by Pixelmator Pro 2.4.5 -->
<svg width="200" height="200" viewBox="0 0 200 200" xmlns="http://www.w3.org/2000/svg" xmlns:xlink="http://www.w3.org/1999/xlink">
    <path id="path1" fill="#ffffff" stroke="none" d="M 34.511967 22.965225 C 34.769909 23.223099 34.914822 23.572891 34.914822 23.937622 C 34.914822 24.302353 34.769909 24.652145 34.511967 24.910019 L 33.254665 26.166229 L 34.541668 26.166229 C 35.635876 26.166229 36.685253 26.600967 37.45887 27.374802 C 38.232491 28.148621 38.666958 29.19812 38.666668 30.292328 L 38.666668 38.542328 C 38.666668 40.820496 36.819839 42.667328 34.541668 42.667328 L 20.791668 42.667328 C 18.513493 42.667328 16.666668 40.820496 16.666668 38.542328 L 16.666668 30.292328 C 16.666668 28.014145 18.513493 26.167328 20.791668 26.167328 L 22.074268 26.167328 L 20.819168 24.911118 C 20.461632 24.565994 20.318136 24.05481 20.443834 23.574036 C 20.569532 23.093262 20.944862 22.717712 21.425566 22.591751 C 21.906269 22.465775 22.417538 22.608978 22.762867 22.966324 L 25.680067 25.88353 C 25.766966 25.970428 25.839567 26.065018 25.897867 26.166229 L 29.432167 26.166229 C 29.490467 26.065018 29.564165 25.968231 29.651066 25.882416 L 32.567165 22.965225 C 32.825039 22.707291 33.174831 22.562363 33.539566 22.562363 C 33.904301 22.562363 34.254093 22.707291 34.511967 22.965225 Z M 34.541668 28.927216 L 20.791668 28.927216 C 20.071766 28.926956 19.473528 29.48201 19.419968 30.199921 L 19.416668 30.303329 L 19.416668 38.553329 C 19.416668 39.278229 19.977667 39.872223 20.689367 39.92392 L 20.791668 39.928329 L 34.541668 39.928329 C 35.26157 39.928589 35.859806 39.373535 35.913368 38.655624 L 35.916668 38.553329 L 35.916668 30.303329 C 35.916668 29.544327 35.300667 28.928329 34.541668 28.928329 Z M 23.541668 31.677216 C 24.300667 31.677216 24.916668 32.293228 24.916668 33.052216 L 24.916668 34.427216 C 24.916668 35.186615 24.30106 35.802231 23.541668 35.802231 C 22.782276 35.802231 22.166668 35.186615 22.166668 34.427216 L 22.166668 33.052216 C 22.166668 32.293228 22.782667 31.677216 23.541668 31.677216 Z M 31.791666 31.677216 C 32.550667 31.677216 33.166664 32.293228 33.166664 33.052216 L 33.166664 34.427216 C 33.166664 35.186615 32.55106 35.802231 31.791666 35.802231 C 31.032274 35.802231 30.416668 35.186615 30.416668 34.427216 L 30.416668 33.052216 C 30.416668 32.293228 31.032667 31.677216 31.791666 31.677216 Z"/>
</svg>
