<?xml version="1.0" encoding="UTF-8"?>
<!-- Generated by Pixelmator Pro 2.4.5 -->
<svg width="21" height="21" viewBox="0 0 21 21" xmlns="http://www.w3.org/2000/svg" xmlns:xlink="http://www.w3.org/1999/xlink">
    <path id="path1" fill="#ffffff" stroke="none" d="M 20.040236 4.269728 C 20.725195 5.01211 21.041016 5.898046 20.995897 6.964453 L 20.995897 15.266016 C 20.979492 16.348827 20.618555 17.238867 19.908983 17.936132 C 19.203516 18.633398 18.305273 18.998438 17.22246 19.03125 L 3.774258 19.03125 C 2.689394 18.998438 1.796895 18.629297 1.096758 17.915625 C 0.397113 17.201954 0.031447 16.262695 0 15.101954 L 0 6.964453 C 0.031447 5.898046 0.397113 5.01211 1.096758 4.269728 C 1.796895 3.599121 2.689394 3.230801 3.774258 3.199219 L 4.979297 3.199219 L 3.939551 2.140606 C 3.703711 1.905586 3.585586 1.607403 3.585586 1.246874 C 3.585586 0.885939 3.703711 0.588163 3.939551 0.352858 C 4.175391 0.117634 4.474804 0 4.835742 0 C 5.19668 0 5.496094 0.117634 5.733984 0.352858 L 8.74043 3.199219 L 12.349805 3.199219 L 15.405469 0.352858 C 15.655664 0.117634 15.963282 0 16.324219 0 C 16.685156 0 16.984571 0.117634 17.22246 0.352858 C 17.456251 0.588163 17.575195 0.885939 17.575195 1.246874 C 17.575195 1.607403 17.456251 1.905586 17.22246 2.140606 L 16.184767 3.199219 L 17.386522 3.199219 C 18.469336 3.230801 19.355272 3.599121 20.040236 4.269728 L 20.040236 4.269728 Z M 18.448828 7.128515 C 18.432421 6.734766 18.297071 6.414844 18.009962 6.164648 C 17.796679 5.914454 17.435743 5.779101 17.078905 5.762695 L 3.939551 5.762695 C 3.546211 5.779101 3.223828 5.914454 2.972402 6.164648 C 2.720567 6.414844 2.586855 6.734766 2.57127 7.128515 L 2.57127 15.101954 C 2.57127 15.479297 2.70498 15.799219 2.972402 16.065821 C 3.239824 16.332422 3.562207 16.467773 3.939551 16.467773 L 17.078905 16.467773 C 17.456251 16.467773 17.776171 16.332422 18.034571 16.065821 C 18.292969 15.799219 18.432421 15.479297 18.448828 15.101954 L 18.448828 7.128515 Z M 7.608398 8.879883 C 7.866797 9.138281 8.006249 9.458203 8.022656 9.831446 L 8.022656 11.197266 C 8.006249 11.57461 7.870898 11.890429 7.620703 12.148829 C 7.366406 12.407227 7.046484 12.538477 6.652734 12.538477 C 6.258985 12.538477 5.934961 12.407227 5.684766 12.148829 C 5.43457 11.890429 5.299219 11.57461 5.282813 11.197266 L 5.282813 9.831446 C 5.299219 9.458203 5.438672 9.138281 5.69707 8.879883 C 5.955469 8.621485 6.238477 8.486133 6.652734 8.469727 C 7.030078 8.486133 7.35 8.621485 7.608398 8.879883 L 7.608398 8.879883 Z M 15.462891 8.879883 C 15.721289 9.138281 15.860743 9.458203 15.877149 9.831446 L 15.877149 11.197266 C 15.860743 11.57461 15.72539 11.890429 15.475195 12.148829 C 15.225 12.407227 14.900976 12.538477 14.507227 12.538477 C 14.113477 12.538477 13.793554 12.407227 13.539258 12.148829 C 13.252149 11.890429 13.153711 11.57461 13.141406 11.197266 L 13.141406 9.831446 C 13.153711 9.458203 13.293164 9.138281 13.551562 8.879883 C 13.809961 8.621485 14.129883 8.486133 14.507227 8.469727 C 14.88457 8.486133 15.204493 8.621485 15.462891 8.879883 L 15.462891 8.879883 Z"/>
</svg>
