<?xml version="1.0" encoding="UTF-8"?>
<!-- Generated by Pixelmator Pro 2.4.5 -->
<svg width="25" height="25" viewBox="0 0 25 25" xmlns="http://www.w3.org/2000/svg" xmlns:xlink="http://www.w3.org/1999/xlink">
    <path id="path1" fill="#ffffff" stroke="none" d="M 7.470833 2.871876 L 10.847917 6.25 L 14.151041 6.25 L 17.529167 2.872917 C 17.93619 2.465895 18.596102 2.465895 19.003124 2.872917 C 19.410147 3.27994 19.410147 3.939852 19.003124 4.346874 L 17.097918 6.25 L 19.270832 6.25 C 21.284372 6.25 22.916668 7.882296 22.916668 9.895834 L 22.916668 18.229168 C 22.916668 20.242704 21.284372 21.875 19.270832 21.875 L 5.729167 21.875 C 3.715628 21.875 2.083333 20.242704 2.083333 18.229168 L 2.083333 9.895834 C 2.083333 7.882296 3.715628 6.25 5.729167 6.25 L 7.901042 6.25 L 5.996875 4.344791 C 5.589852 3.937769 5.589852 3.277855 5.996875 2.870832 C 6.403898 2.463812 7.063811 2.46381 7.470833 2.870832 Z M 19.270832 8.333334 L 5.729167 8.333334 C 4.924352 8.333372 4.25122 8.944736 4.173958 9.745833 L 4.166667 9.895834 L 4.166667 18.229168 C 4.166705 19.033981 4.778069 19.707113 5.579167 19.784374 L 5.729167 19.791668 L 19.270832 19.791668 C 20.075647 19.791628 20.748779 19.180264 20.826042 18.379166 L 20.833332 18.229168 L 20.833332 9.895834 C 20.833332 9.032888 20.133778 8.333334 19.270832 8.333334 Z M 8.333334 11.458334 C 8.90863 11.458334 9.375 11.924704 9.375 12.5 L 9.375 14.583333 C 9.374912 15.158568 8.908567 15.624841 8.333334 15.624841 C 7.758099 15.624841 7.291755 15.158568 7.291667 14.583333 L 7.291667 12.5 C 7.291667 11.924704 7.758037 11.458334 8.333334 11.458334 Z M 16.666668 11.458334 C 17.241964 11.458334 17.708332 11.924704 17.708332 12.5 L 17.708332 14.583333 C 17.708244 15.158568 17.241901 15.624841 16.666668 15.624841 C 16.091433 15.624841 15.625088 15.158568 15.625 14.583333 L 15.625 12.5 C 15.625 11.924704 16.09137 11.458334 16.666668 11.458334 Z"/>
</svg>
