<?xml version="1.0" encoding="UTF-8"?>
<!-- Generated by Pixelmator Pro 2.4.5 -->
<svg width="21" height="21" viewBox="0 0 21 21" xmlns="http://www.w3.org/2000/svg" xmlns:xlink="http://www.w3.org/1999/xlink">
    <path id="path1" fill="#ffffff" stroke="none" d="M 16.693359 7.284375 C 17.005079 6.3 16.143751 5.364843 15.159375 5.574023 C 14.257031 5.770899 13.978125 4.421484 14.868164 4.228712 C 16.923048 3.781641 18.653906 5.750391 18.005859 7.706836 C 17.726954 8.576367 16.414454 8.149805 16.693359 7.284375 Z M 8.810157 18.32168 C 4.450195 18.32168 0 16.213476 0 12.73125 C 0 10.914258 1.148438 8.818359 3.129492 6.837305 C 7.21875 2.748047 11.463867 2.698828 10.249804 6.603516 C 10.085742 7.140821 10.754297 6.837305 10.754297 6.849609 C 14.015039 5.471484 16.516993 6.160547 15.430079 8.957812 C 15.27832 9.343359 15.475195 9.404882 15.770508 9.495117 C 21.336329 11.230078 17.197851 18.32168 8.810157 18.32168 Z M 14.704102 12.321094 C 14.482617 10.036524 11.484375 8.465625 8.002149 8.806055 C 4.524024 9.158789 1.899023 11.279297 2.120508 13.563868 C 2.341992 15.848437 5.340234 17.419336 8.822461 17.078907 C 12.300586 16.726171 14.925586 14.605664 14.704102 12.321094 Z M 14.269336 1.43965 C 13.207031 1.669336 13.580274 3.232031 14.609766 3.010546 C 17.575195 2.38711 20.138672 5.176172 19.19121 8.096484 C 18.887695 9.089063 20.384766 9.614062 20.725195 8.588672 C 22.033594 4.495314 18.465235 0.553711 14.269336 1.43965 Z M 11.049609 14.195508 C 10.348243 15.786914 8.309766 16.656445 6.574805 16.094532 C 4.901367 15.557226 4.195899 13.904297 4.921875 12.41543 C 5.647851 10.963476 7.509961 10.143164 9.16289 10.565625 C 10.885547 11.008594 11.750977 12.624609 11.049609 14.195508 Z M 7.509961 12.965039 C 6.980859 12.743555 6.279492 12.977344 5.951367 13.494141 C 5.610938 14.023242 5.775 14.642578 6.304101 14.888672 C 6.841406 15.134766 7.567383 14.900976 7.907813 14.359571 C 8.235938 13.822266 8.05957 13.198828 7.509961 12.965039 Z M 8.84707 12.41543 C 8.637891 12.345703 8.379493 12.440039 8.260547 12.636914 C 8.141602 12.846094 8.203125 13.07168 8.412305 13.166016 C 8.621484 13.248047 8.892188 13.153711 9.011132 12.944531 C 9.125977 12.73125 9.056251 12.497461 8.84707 12.41543 Z"/>
</svg>
