<?xml version="1.0" encoding="UTF-8"?>
<!-- Generated by Pixelmator Pro 2.4.5 -->
<svg width="222" height="200" viewBox="0 0 222 200" xmlns="http://www.w3.org/2000/svg" xmlns:xlink="http://www.w3.org/1999/xlink">
    <path id="path1" fill="#ffffff" stroke="none" d="M 17.322773 11.100983 C 17.679209 11.37822 17.930035 11.711548 18.075249 12.100983 C 18.220463 12.490433 18.279869 12.896362 18.253466 13.318802 C 18.227064 13.741257 18.134655 14.163696 17.976238 14.586136 C 17.817822 15.008575 17.613201 15.391418 17.362377 15.73465 C 16.913532 16.355118 16.405281 16.883163 15.837626 17.318817 C 15.269968 17.754456 14.682509 18.117493 14.075247 18.407913 C 13.467988 18.698349 12.857427 18.926071 12.243566 19.091095 C 11.629704 19.256104 11.052145 19.37822 10.510892 19.457428 C 9.969638 19.536636 9.484489 19.586136 9.055446 19.605942 C 8.626403 19.625748 8.29307 19.635635 8.055446 19.635635 C 7.817822 19.635635 7.500991 19.619141 7.104951 19.586136 C 6.708911 19.553131 6.269968 19.487122 5.788119 19.388123 C 5.306271 19.289108 4.80132 19.150497 4.273267 18.972275 C 3.745215 18.794052 3.230364 18.559738 2.728713 18.269302 C 2.227063 17.978882 1.748515 17.622437 1.293069 17.199997 C 0.837624 16.777557 0.451485 16.269302 0.134653 15.675247 C -0.076568 15.292404 -0.218482 14.883163 -0.291089 14.447525 C -0.363696 14.011887 -0.4 13.457428 -0.4 12.784149 C -0.4 12.493729 -0.350495 12.163696 -0.251485 11.794052 C -0.152475 11.424423 0.022442 11.015182 0.273267 10.56633 C 0.524092 10.117493 0.867327 9.629044 1.30297 9.100983 C 1.738614 8.572937 2.293069 7.992081 2.966337 7.358414 C 3.626403 6.737946 4.309571 6.186798 5.015842 5.704941 C 5.722113 5.223099 6.477888 4.850159 7.283169 4.586136 C 7.652806 4.454117 8.062047 4.381516 8.510892 4.368317 C 8.959737 4.355118 9.329373 4.427719 9.619802 4.586136 C 9.751817 4.731354 9.877229 4.879868 9.99604 5.031677 C 10.114852 5.183502 10.19406 5.371613 10.233665 5.596039 C 10.273268 5.780853 10.276568 5.959076 10.243565 6.130692 C 10.210561 6.302307 10.174257 6.473923 10.134653 6.645538 C 10.09505 6.817154 10.062046 6.982178 10.035644 7.140594 C 10.009241 7.299011 10.022443 7.444229 10.075249 7.576233 C 10.299671 7.602631 10.517492 7.592743 10.728713 7.546539 C 10.939935 7.500336 11.144555 7.440918 11.342575 7.368317 C 11.540595 7.2957 11.741916 7.219803 11.946536 7.140594 C 12.151156 7.061386 12.365678 7.001984 12.5901 6.962372 C 12.946535 6.896362 13.29967 6.866669 13.649506 6.87326 C 13.999341 6.879868 14.316173 6.929367 14.600001 7.021774 C 14.88383 7.114182 15.118154 7.256104 15.302971 7.447525 C 15.487789 7.638947 15.6 7.886459 15.639606 8.190094 C 15.666008 8.374908 15.652806 8.546539 15.6 8.704941 C 15.547194 8.863358 15.491089 9.011871 15.431684 9.150497 C 15.372277 9.289108 15.326072 9.431015 15.293069 9.576233 C 15.260066 9.721451 15.269966 9.87326 15.322773 10.031677 C 15.362377 10.124084 15.458086 10.2099 15.609902 10.289108 C 15.761718 10.368317 15.936635 10.447525 16.134655 10.526733 C 16.332674 10.605942 16.540594 10.691742 16.758415 10.784149 C 16.976238 10.876572 17.164358 10.982178 17.322773 11.100983 Z M 12.332674 17.259399 C 12.675907 17.048187 13.022442 16.757751 13.372277 16.388123 C 13.722114 16.018478 14.005942 15.605942 14.223763 15.150497 C 14.441585 14.695053 14.563698 14.206604 14.5901 13.68515 C 14.616504 13.163696 14.484489 12.638947 14.19406 12.110886 C 13.943234 11.675247 13.636305 11.305603 13.273268 11.001984 C 12.910231 10.698349 12.504292 10.457428 12.055446 10.279205 C 11.606601 10.100983 11.128054 9.972275 10.619802 9.893066 C 10.111551 9.813858 9.5934 9.774261 9.065348 9.774261 C 8.048845 9.774261 7.147855 9.879868 6.362377 10.09108 C 5.576898 10.302307 4.89703 10.579529 4.322773 10.922775 C 3.748515 11.266006 3.283169 11.655441 2.926733 12.09108 C 2.570297 12.526733 2.319472 12.968979 2.174258 13.417816 C 2.029043 13.85347 1.986139 14.285812 2.045545 14.714844 C 2.104951 15.14389 2.240264 15.549835 2.451485 15.932678 C 2.662707 16.315506 2.936634 16.658737 3.273268 16.962372 C 3.609901 17.266006 3.982839 17.510223 4.392079 17.695053 C 5.144555 18.025085 5.913531 18.233002 6.69901 18.318817 C 7.484489 18.404617 8.233665 18.407913 8.946535 18.328705 C 9.659407 18.249496 10.309571 18.110886 10.89703 17.912872 C 11.484488 17.714844 11.963037 17.497025 12.332674 17.259399 Z M 9.738614 11.001984 C 10.002641 11.10759 10.253466 11.226395 10.49109 11.358414 C 10.728713 11.490433 10.939935 11.66864 11.124753 11.893066 C 11.256765 12.051483 11.372278 12.249496 11.471289 12.487122 C 11.570297 12.724747 11.639605 12.978882 11.679209 13.249496 C 11.718813 13.520126 11.728713 13.794052 11.708912 14.071289 C 11.689109 14.348511 11.626403 14.599335 11.520794 14.823761 C 11.415182 15.061386 11.286469 15.302307 11.134654 15.546539 C 10.982839 15.790756 10.798021 16.018478 10.580198 16.229706 C 10.362377 16.440918 10.101651 16.629044 9.798021 16.794052 C 9.49439 16.959076 9.124753 17.081192 8.689109 17.1604 C 7.89703 17.305603 7.137955 17.233002 6.411882 16.942566 C 5.685809 16.652145 5.118152 16.170288 4.708911 15.497025 C 4.550495 14.982178 4.464687 14.526733 4.451485 14.130692 C 4.438284 13.73465 4.543895 13.305603 4.768317 12.843567 C 4.939934 12.487122 5.200661 12.153793 5.550496 11.843567 C 5.900331 11.533325 6.302971 11.282501 6.758416 11.091095 C 7.213862 10.899673 7.69901 10.78746 8.213861 10.754456 C 8.728714 10.721451 9.236964 10.803955 9.738614 11.001984 Z M 6.5901 15.87326 C 7.078549 15.912872 7.451486 15.794052 7.708911 15.51683 C 7.966337 15.239609 8.10495 14.929367 8.124753 14.586136 C 8.144555 14.242905 8.045546 13.935974 7.827724 13.665344 C 7.609901 13.394714 7.269967 13.285812 6.80792 13.338608 C 6.451485 13.37822 6.174258 13.530029 5.976238 13.794052 C 5.778218 14.05809 5.666007 14.338608 5.639605 14.635635 C 5.613202 14.932678 5.675908 15.206604 5.827723 15.457428 C 5.979538 15.708252 6.233665 15.846863 6.5901 15.87326 Z M 14.68911 1.199997 C 15.652806 1.199997 16.553797 1.328705 17.39208 1.586136 C 18.230364 1.843567 18.963037 2.216492 19.590101 2.704941 C 20.217163 3.19339 20.70891 3.78746 21.065348 4.487122 C 21.421783 5.186798 21.6 5.978882 21.6 6.863358 C 21.6 7.299011 21.494389 7.625748 21.283171 7.843567 C 21.071949 8.061386 20.844227 8.173599 20.600002 8.180191 C 20.355778 8.186798 20.128054 8.094391 19.916834 7.902969 C 19.705612 7.711548 19.600002 7.417816 19.600002 7.021774 C 19.600002 6.493729 19.454786 5.992081 19.164358 5.51683 C 18.873928 5.04158 18.491089 4.625748 18.015842 4.269302 C 17.540596 3.912872 16.99604 3.632339 16.382179 3.427719 C 15.768318 3.223099 15.144556 3.120789 14.510892 3.120789 C 14.101651 3.120789 13.79802 3.021774 13.6 2.823761 C 13.401981 2.625748 13.309571 2.404617 13.322773 2.160385 C 13.335974 1.916168 13.458086 1.695053 13.689111 1.497025 C 13.920134 1.299011 14.253466 1.199997 14.68911 1.199997 Z M 14.68911 4.368317 C 15.916832 4.368317 16.847527 4.681839 17.48119 5.308914 C 18.114853 5.935974 18.431684 6.883163 18.431684 8.150497 C 18.431684 8.546539 18.365677 8.827057 18.233665 8.992081 C 18.101652 9.157089 17.956436 9.229706 17.798019 9.2099 C 17.639605 9.190094 17.49439 9.094391 17.362377 8.922775 C 17.230364 8.75116 17.164358 8.520126 17.164358 8.229706 C 17.164358 7.450821 16.939936 6.830368 16.491089 6.368317 C 16.042244 5.906265 15.441585 5.675247 14.68911 5.675247 C 14.438284 5.675247 14.253466 5.605942 14.134654 5.467331 C 14.015842 5.328705 13.956435 5.180191 13.956435 5.021774 C 13.956435 4.863358 14.019141 4.714844 14.144555 4.576233 C 14.269967 4.437622 14.451485 4.368317 14.68911 4.368317 Z"/>
</svg>
