<?xml version="1.0" encoding="UTF-8"?>
<!-- Generated by Pixelmator Pro 2.4.5 -->
<svg viewBox="0 0 23 22" fill="none" xmlns="http://www.w3.org/2000/svg">
    <path id="path1" fill="#ffffff" stroke="none" d="M 15.103516 6.590625 C 15.385547 5.7 14.60625 4.853906 13.715625 5.043164 C 12.899219 5.22129 12.646874 4.00039 13.452148 3.825976 C 15.311328 3.421485 16.877344 5.202735 16.291016 6.972852 C 16.038671 7.75957 14.851172 7.373633 15.103516 6.590625 Z M 7.971094 16.576757 C 4.026367 16.576757 -0 14.669335 -0 11.518749 C -0 9.874804 1.039063 7.978516 2.831445 6.186133 C 6.53125 2.486328 10.37207 2.441797 9.273633 5.974609 C 9.125196 6.460742 9.730079 6.186133 9.730079 6.197266 C 12.680274 4.950391 14.943946 5.573829 13.960547 8.104688 C 13.823242 8.453515 14.001367 8.509179 14.268555 8.59082 C 19.304296 10.160546 15.55996 16.576757 7.971094 16.576757 Z M 13.303711 11.147655 C 13.10332 9.080665 10.390625 7.659375 7.240039 7.967383 C 4.093164 8.286523 1.718164 10.205078 1.918555 12.272071 C 2.118945 14.339062 4.831641 15.760352 7.982227 15.452343 C 11.129102 15.133203 13.504102 13.214649 13.303711 11.147655 Z M 12.910352 1.30254 C 11.949219 1.510351 12.286914 2.924219 13.21836 2.723827 C 15.901367 2.159765 18.220703 4.683204 17.363476 7.325391 C 17.088867 8.223437 18.443359 8.698438 18.751368 7.770703 C 19.935156 4.067187 16.70664 0.500977 12.910352 1.30254 Z M 9.997266 12.843555 C 9.362696 14.283398 7.51836 15.070118 5.948633 14.561718 C 4.43457 14.075585 3.796289 12.580078 4.453125 11.233008 C 5.109961 9.919335 6.794727 9.177148 8.290235 9.559375 C 9.848828 9.960156 10.631836 11.422265 9.997266 12.843555 Z M 6.794727 11.730274 C 6.316016 11.529883 5.681446 11.741405 5.384571 12.208984 C 5.076562 12.687695 5.225 13.248047 5.703711 13.470703 C 6.189844 13.693359 6.84668 13.481835 7.154687 12.991993 C 7.451562 12.505859 7.291992 11.941796 6.794727 11.730274 Z M 8.004492 11.233008 C 7.815235 11.169922 7.581445 11.255273 7.473828 11.433399 C 7.366211 11.622657 7.421875 11.826758 7.611133 11.912109 C 7.800391 11.986328 8.045313 11.900977 8.152929 11.71172 C 8.256836 11.518749 8.19375 11.307227 8.004492 11.233008 Z"/>
</svg>
